<?xml version="1.0" encoding="utf-8"?>
<!-- Generator: Adobe Illustrator 16.0.0, SVG Export Plug-In . SVG Version: 6.00 Build 0)  -->
<!DOCTYPE svg PUBLIC "-//W3C//DTD SVG 1.1//EN" "http://www.w3.org/Graphics/SVG/1.1/DTD/svg11.dtd">
<svg version="1.1" xmlns="http://www.w3.org/2000/svg" xmlns:xlink="http://www.w3.org/1999/xlink" x="0px" y="0px" width="74.5px"
	 height="91.083px" viewBox="0 0 74.5 91.083" enable-background="new 0 0 74.5 91.083" xml:space="preserve">
<g id="fill">
</g>
<g id="Open" display="none">
	<g id="open_1_" display="inline">
		<path fill="#FFFFFF" d="M27.391,88.721c9.177,3.102,13.429,0.531,13.429,0.531c4.219,1.116,7.676-2.648,7.676-2.648
			c6.629-6.539,13.131-29.086,13.131-29.086c3.122-6.805,10.5-13.887,10.5-13.887c1.833-4.219-3.666-3.613-3.666-3.613
			c-2.833-0.168-11.334,9.832-11.334,9.832s-6.951,2.814-6.438-4.227l0.047-0.543l4.211-36.106c-3.143-7.25-6.604-0.124-6.604-0.124
			l-7.461,36.037v0.69l-4.25-39.869c0,0-3.419-7.597-6.439-0.802l1.556,43.684L19.98,12.67c0,0-3.75-6.666-5.479,1.231l5.945,37.855
			L7.542,25.284c0,0-4.748-4.166-4.704,2.016l10.663,30.811C14.59,77.797,27.391,88.721,27.391,88.721z"/>
	</g>
	<g id="base" display="inline">
		<path fill="none" stroke="#000000" stroke-width="3" stroke-linecap="round" stroke-linejoin="round" stroke-miterlimit="10" d="
			M27.535,88.199c0,0-12.337-6.882-13.891-30.612"/>
	</g>
	<g id="fingers_down">
		
			<path display="inline" fill="none" stroke="#000000" stroke-width="3" stroke-linecap="round" stroke-linejoin="round" stroke-miterlimit="10" d="
			M4.119,58.86c0,0-0.854-16.121,6.945-14.302c0,0,5.759,4.854,8.042,11.241c0,0,3.327,5.371,1.31,7.271
			c0,0-4.999,1.224-5.375-5.187c0,0-3.244-3.551-5.318-6.69c0,0,1.522,1.279-0.725,5.608"/>
		
			<path display="inline" fill="none" stroke="#000000" stroke-width="3" stroke-linecap="round" stroke-linejoin="round" stroke-miterlimit="10" d="
			M12.578,44.689c0,0,3.937-14.629,8.485-8.979c0,0,3.026,4.106,5.858,10.791"/>
		
			<path display="inline" fill="none" stroke="#000000" stroke-width="3" stroke-linecap="round" stroke-linejoin="round" stroke-miterlimit="10" d="
			M47.54,58.286c-0.521-9.473-4.735-11.789-4.735-11.789"/>
		
			<path display="inline" fill="none" stroke="#000000" stroke-width="3" stroke-linecap="round" stroke-linejoin="round" stroke-miterlimit="10" d="
			M28.269,51.613c0,0,0.814,8.88-4.638,3.839c0,0-1.276-2.354-1.536-4.271c0,0-3.598-6.11-4.206-7.74c0,0,2.476,3.642,0,8.677"/>
		
			<line display="inline" fill="none" stroke="#000000" stroke-width="3" stroke-linecap="round" stroke-linejoin="round" stroke-miterlimit="10" x1="39.514" y1="59.284" x2="38.145" y2="53.066"/>
		
			<path display="inline" fill="none" stroke="#000000" stroke-width="3" stroke-linecap="round" stroke-linejoin="round" stroke-miterlimit="10" d="
			M47.54,58.286c-0.521-9.473-4.735-11.789-4.735-11.789c-6.071,1.35-17.226,0.256-17.226,0.256
			c-0.374,8.306,13.882,6.068,13.882,6.068"/>
		
			<path display="inline" fill="none" stroke="#000000" stroke-width="3" stroke-linecap="round" stroke-linejoin="round" stroke-miterlimit="10" d="
			M31.436,90.002c4.22,1.117,7.675-2.648,7.675-2.648c6.63-6.539,8.162-21.859,8.162-21.859c0.314-2.771,0.377-5.158,0.265-7.209"/>
		
			<path display="inline" fill="none" stroke="#000000" stroke-width="3" stroke-linecap="round" stroke-linejoin="round" stroke-miterlimit="10" d="
			M35.581,63.833c0,0-6.559,8.746-3.859,16.875"/>
	</g>
	<g id="crossed">
		
			<line display="inline" fill="none" stroke="#000000" stroke-width="3" stroke-linecap="round" stroke-linejoin="round" stroke-miterlimit="10" x1="33.327" y1="40.586" x2="32.345" y2="44.006"/>
		
			<path display="inline" fill="none" stroke="#000000" stroke-width="3" stroke-linecap="round" stroke-linejoin="round" stroke-miterlimit="10" d="
			M24.9,42.297l5.169-15.463"/>
		
			<path display="inline" fill="none" stroke="#000000" stroke-width="3" stroke-linecap="round" stroke-linejoin="round" stroke-miterlimit="10" d="
			M34.655,43.57l-8.498-31.019c0,0,0.117-9.423,6.718-3.203L45.73,50.35"/>
		
			<path display="inline" fill="none" stroke="#000000" stroke-width="3" stroke-linecap="round" stroke-linejoin="round" stroke-miterlimit="10" d="
			M38.827,28.336L45.023,9.11c0,0-0.11-9.312-6.301-3.165l-3.744,10.126"/>
	</g>
	<g id="open" display="inline">
		<path fill="none" stroke="#000000" stroke-width="3" stroke-linecap="round" stroke-linejoin="round" stroke-miterlimit="10" d="
			M41.024,44.365l7.461-36.037c0,0,3.463-7.126,6.604,0.124l-4.211,36.106"/>
		<path fill="none" stroke="#000000" stroke-width="3" stroke-linecap="round" stroke-linejoin="round" stroke-miterlimit="10" d="
			M32.282,45.055L30.358,4.892c2.997-7.302,6.416,0.295,6.416,0.295l4.25,39.869"/>
		<path fill="none" stroke="#000000" stroke-width="3" stroke-linecap="round" stroke-linejoin="round" stroke-miterlimit="10" d="
			M21.76,48.229l-7.116-34.851c1.728-7.897,5.479-1.232,5.479-1.232l10.631,35.629"/>
		<path fill="none" stroke="#000000" stroke-width="3" stroke-linecap="round" stroke-linejoin="round" stroke-miterlimit="10" d="
			M13.016,57.25L2.981,26.775c-0.044-6.182,4.704-2.015,4.704-2.015l12.904,26.474"/>
		<path fill="none" stroke="#000000" stroke-width="3" stroke-linecap="round" stroke-linejoin="round" stroke-miterlimit="10" d="
			M40.963,88.729c4.219,1.117,7.676-2.648,7.676-2.648c6.629-6.539,13.131-29.086,13.131-29.086
			c3.122-6.805,10.5-13.886,10.5-13.886c1.833-4.219-3.666-3.614-3.666-3.614c-2.833-0.167-11.334,9.833-11.334,9.833
			s-6.951,2.813-6.438-4.228"/>
		<path fill="none" stroke="#000000" stroke-width="3" stroke-linecap="round" stroke-linejoin="round" stroke-miterlimit="10" d="
			M47.338,59.848c0,0-8.277,7.139-7.383,15.657"/>
	</g>
	<g id="Layer_4">
		
			<line display="inline" fill="none" stroke="#000000" stroke-width="3" stroke-linecap="round" stroke-linejoin="round" stroke-miterlimit="10" x1="33.328" y1="40.564" x2="32.346" y2="43.984"/>
		
			<path display="inline" fill="none" stroke="#000000" stroke-width="3" stroke-linecap="round" stroke-linejoin="round" stroke-miterlimit="10" d="
			M38.83,28.316l6.902,22.013"/>
		
			<path display="inline" fill="none" stroke="#000000" stroke-width="3" stroke-linecap="round" stroke-linejoin="round" stroke-miterlimit="10" d="
			M38.83,28.316"/>
		
			<path display="inline" fill="none" stroke="#000000" stroke-width="3" stroke-linecap="round" stroke-linejoin="round" stroke-miterlimit="10" d="
			M30.125,26.708l-3.967-14.179c0,0,0.117-9.423,6.718-3.203l1.974,6.294"/>
		
			<path display="inline" fill="none" stroke="#000000" stroke-width="3" stroke-linecap="round" stroke-linejoin="round" stroke-miterlimit="10" d="
			M34.656,43.548l-0.835-3.049"/>
		
			<path display="inline" fill="none" stroke="#000000" stroke-width="3" stroke-linecap="round" stroke-linejoin="round" stroke-miterlimit="10" d="
			M33.328,40.564L45.025,9.089c0,0-0.111-9.312-6.301-3.165L24.9,42.275"/>
	</g>
	<g id="Layer_2" display="inline">
	</g>
</g>
<g id="crossed_2_">
	<path fill="#FFFFFF" d="M27.972,88.493c0,0-24.318-23.538-10.159-45.565l4.032,0.045c0,0,5.083-12.066,7.06-10.123l5.264,6.717
		l5.168-12.495l-3.911-16.236c0,0,0.459-9.1,7.17-2.934l1.651,5.334l3.743-9.006c0,0,5.619-6.177,6.302,3.164l-6.193,17.725
		l5.039,17.581l3.479,11.76c0,0,0.983,33.881-15.913,33.828C40.702,88.286,34.805,89.419,27.972,88.493z"/>
	<g id="base_1_">
		<path fill="none" stroke="#000000" stroke-width="3" stroke-linecap="round" stroke-linejoin="round" stroke-miterlimit="10" d="
			M27.443,88.478c0,0-12.337-6.882-13.891-30.612"/>
	</g>
	<g id="fingers_down_1_">
		<path fill="none" stroke="#000000" stroke-width="3" stroke-linecap="round" stroke-linejoin="round" stroke-miterlimit="10" d="
			M13.553,57.866c0,0-0.854-16.121,6.945-14.302c0,0,5.759,4.854,8.041,11.241c0,0,3.328,5.371,1.311,7.271
			c0,0-4.999,1.224-5.375-5.187c0,0-3.244-3.551-5.318-6.69c0,0,1.522,1.279-0.725,5.608"/>
		<path fill="none" stroke="#000000" stroke-width="3" stroke-linecap="round" stroke-linejoin="round" stroke-miterlimit="10" d="
			M22.012,43.695c0,0,3.938-14.629,8.484-8.979c0,0,3.026,4.106,5.858,10.791"/>
		<path fill="none" stroke="#000000" stroke-width="3" stroke-linecap="round" stroke-linejoin="round" stroke-miterlimit="10" d="
			M56.974,57.292c-0.521-9.473-4.735-11.789-4.735-11.789"/>
		<path fill="none" stroke="#000000" stroke-width="3" stroke-linecap="round" stroke-linejoin="round" stroke-miterlimit="10" d="
			M37.703,50.619c0,0,0.813,8.88-4.639,3.839c0,0-1.275-2.354-1.535-4.271c0,0-3.599-6.11-4.207-7.74c0,0,2.477,3.642,0,8.677"/>
		
			<line fill="none" stroke="#000000" stroke-width="3" stroke-linecap="round" stroke-linejoin="round" stroke-miterlimit="10" x1="48.947" y1="58.29" x2="47.578" y2="52.072"/>
		<path fill="none" stroke="#000000" stroke-width="3" stroke-linecap="round" stroke-linejoin="round" stroke-miterlimit="10" d="
			M56.974,57.292c-0.521-9.473-4.735-11.789-4.735-11.789c-6.07,1.35-17.226,0.256-17.226,0.256
			c-0.374,8.306,13.882,6.068,13.882,6.068"/>
		<path fill="none" stroke="#000000" stroke-width="3" stroke-linecap="round" stroke-linejoin="round" stroke-miterlimit="10" d="
			M40.869,89.008c4.221,1.117,7.676-2.648,7.676-2.648c6.63-6.539,8.162-21.859,8.162-21.859c0.314-2.771,0.377-5.158,0.265-7.209"
			/>
		<path fill="none" stroke="#000000" stroke-width="3" stroke-linecap="round" stroke-linejoin="round" stroke-miterlimit="10" d="
			M45.015,62.838c0,0-6.56,8.746-3.858,16.875"/>
	</g>
	<g id="crossed_1_">
		
			<line fill="none" stroke="#000000" stroke-width="3" stroke-linecap="round" stroke-linejoin="round" stroke-miterlimit="10" x1="42.761" y1="39.592" x2="41.779" y2="43.012"/>
		<path fill="none" stroke="#000000" stroke-width="3" stroke-linecap="round" stroke-linejoin="round" stroke-miterlimit="10" d="
			M34.334,41.303l5.168-15.463"/>
		<path fill="none" stroke="#000000" stroke-width="3" stroke-linecap="round" stroke-linejoin="round" stroke-miterlimit="10" d="
			M44.088,42.576l-8.497-31.019c0,0,0.116-9.423,6.718-3.203l12.855,41.002"/>
		<path fill="none" stroke="#000000" stroke-width="3" stroke-linecap="round" stroke-linejoin="round" stroke-miterlimit="10" d="
			M48.261,27.342l6.196-19.226c0,0-0.11-9.312-6.301-3.165l-3.744,10.126"/>
	</g>
</g>
</svg>
