<?xml version="1.0" encoding="utf-8"?>
<!-- Generator: Adobe Illustrator 16.0.0, SVG Export Plug-In . SVG Version: 6.00 Build 0)  -->
<!DOCTYPE svg PUBLIC "-//W3C//DTD SVG 1.1//EN" "http://www.w3.org/Graphics/SVG/1.1/DTD/svg11.dtd">
<svg version="1.1" id="Layer_1" xmlns="http://www.w3.org/2000/svg" xmlns:xlink="http://www.w3.org/1999/xlink" x="0px" y="0px"
	 width="527px" height="91.083px" viewBox="-459.25 0 527 91.083" enable-background="new -459.25 0 527 91.083"
	 xml:space="preserve">
<g id="base">
	<path fill="none" stroke="#000000" stroke-width="3" stroke-linecap="round" stroke-linejoin="round" stroke-miterlimit="10" d="
		M18.01,89.472c0,0-12.337-6.882-13.891-30.612"/>
</g>
<g id="fingers_down">
	<path fill="none" stroke="#000000" stroke-width="3" stroke-linecap="round" stroke-linejoin="round" stroke-miterlimit="10" d="
		M4.119,58.86c0,0-0.854-16.121,6.945-14.302c0,0,5.759,4.854,8.042,11.241c0,0,3.327,5.371,1.31,7.271c0,0-4.999,1.224-5.375-5.187
		c0,0-3.244-3.551-5.318-6.69c0,0,1.522,1.279-0.725,5.608"/>
	<path fill="none" stroke="#000000" stroke-width="3" stroke-linecap="round" stroke-linejoin="round" stroke-miterlimit="10" d="
		M12.578,44.689c0,0,3.937-14.629,8.485-8.979c0,0,3.026,4.106,5.858,10.791"/>
	<path fill="none" stroke="#000000" stroke-width="3" stroke-linecap="round" stroke-linejoin="round" stroke-miterlimit="10" d="
		M47.54,58.286c-0.521-9.473-4.735-11.789-4.735-11.789"/>
	<path fill="none" stroke="#000000" stroke-width="3" stroke-linecap="round" stroke-linejoin="round" stroke-miterlimit="10" d="
		M28.269,51.613c0,0,0.814,8.88-4.638,3.839c0,0-1.276-2.354-1.536-4.271c0,0-3.598-6.11-4.206-7.74c0,0,2.476,3.642,0,8.677"/>
	
		<line fill="none" stroke="#000000" stroke-width="3" stroke-linecap="round" stroke-linejoin="round" stroke-miterlimit="10" x1="39.514" y1="59.284" x2="38.145" y2="53.066"/>
	<path fill="none" stroke="#000000" stroke-width="3" stroke-linecap="round" stroke-linejoin="round" stroke-miterlimit="10" d="
		M47.54,58.286c-0.521-9.473-4.735-11.789-4.735-11.789c-6.071,1.35-17.226,0.256-17.226,0.256
		c-0.374,8.306,13.882,6.068,13.882,6.068"/>
	<path fill="none" stroke="#000000" stroke-width="3" stroke-linecap="round" stroke-linejoin="round" stroke-miterlimit="10" d="
		M31.436,90.002c4.22,1.117,7.675-2.648,7.675-2.648c6.63-6.539,8.162-21.859,8.162-21.859c0.314-2.771,0.377-5.158,0.265-7.209"/>
	<path fill="none" stroke="#000000" stroke-width="3" stroke-linecap="round" stroke-linejoin="round" stroke-miterlimit="10" d="
		M35.581,63.833c0,0-6.559,8.746-3.859,16.875"/>
</g>
<g id="crossed">
	
		<line fill="none" stroke="#000000" stroke-width="3" stroke-linecap="round" stroke-linejoin="round" stroke-miterlimit="10" x1="33.327" y1="40.586" x2="32.345" y2="44.006"/>
	<path fill="none" stroke="#000000" stroke-width="3" stroke-linecap="round" stroke-linejoin="round" stroke-miterlimit="10" d="
		M24.9,42.297l5.169-15.463"/>
	<path fill="none" stroke="#000000" stroke-width="3" stroke-linecap="round" stroke-linejoin="round" stroke-miterlimit="10" d="
		M34.655,43.57l-8.498-31.019c0,0,0.117-9.423,6.718-3.203L45.73,50.35"/>
	<path fill="none" stroke="#000000" stroke-width="3" stroke-linecap="round" stroke-linejoin="round" stroke-miterlimit="10" d="
		M38.827,28.336L45.023,9.11c0,0-0.11-9.312-6.301-3.165l-3.744,10.126"/>
</g>
<g id="open" display="none">
	
		<path display="inline" fill="none" stroke="#000000" stroke-width="3" stroke-linecap="round" stroke-linejoin="round" stroke-miterlimit="10" d="
		M31.499,45.638L38.96,9.601c0,0,3.463-7.126,6.604,0.124l-4.211,36.106"/>
	
		<path display="inline" fill="none" stroke="#000000" stroke-width="3" stroke-linecap="round" stroke-linejoin="round" stroke-miterlimit="10" d="
		M22.757,46.329L20.833,6.165c2.997-7.302,6.416,0.295,6.416,0.295l4.25,39.869"/>
	
		<path display="inline" fill="none" stroke="#000000" stroke-width="3" stroke-linecap="round" stroke-linejoin="round" stroke-miterlimit="10" d="
		M12.235,49.502L5.119,14.652c1.728-7.897,5.479-1.232,5.479-1.232l10.631,35.629"/>
	
		<path display="inline" fill="none" stroke="#000000" stroke-width="3" stroke-linecap="round" stroke-linejoin="round" stroke-miterlimit="10" d="
		M3.49,58.524L-6.544,28.049c-0.044-6.182,4.704-2.015,4.704-2.015l12.904,26.474"/>
	
		<path display="inline" fill="none" stroke="#000000" stroke-width="3" stroke-linecap="round" stroke-linejoin="round" stroke-miterlimit="10" d="
		M31.437,90.002c4.219,1.117,7.676-2.648,7.676-2.648c6.629-6.539,13.131-29.086,13.131-29.086c3.122-6.805,10.5-13.886,10.5-13.886
		c1.833-4.219-3.666-3.614-3.666-3.614c-2.833-0.167-11.334,9.833-11.334,9.833s-6.951,2.813-6.438-4.228"/>
	
		<path display="inline" fill="none" stroke="#000000" stroke-width="3" stroke-linecap="round" stroke-linejoin="round" stroke-miterlimit="10" d="
		M37.812,61.122c0,0-8.277,7.139-7.382,15.657"/>
</g>
<g id="Layer_4" display="none">
	
		<line display="inline" fill="none" stroke="#000000" stroke-width="3" stroke-linecap="round" stroke-linejoin="round" stroke-miterlimit="10" x1="33.328" y1="40.564" x2="32.346" y2="43.984"/>
	
		<path display="inline" fill="none" stroke="#000000" stroke-width="3" stroke-linecap="round" stroke-linejoin="round" stroke-miterlimit="10" d="
		M38.83,28.316l6.902,22.013"/>
	
		<path display="inline" fill="none" stroke="#000000" stroke-width="3" stroke-linecap="round" stroke-linejoin="round" stroke-miterlimit="10" d="
		M38.83,28.316"/>
	
		<path display="inline" fill="none" stroke="#000000" stroke-width="3" stroke-linecap="round" stroke-linejoin="round" stroke-miterlimit="10" d="
		M30.125,26.708l-3.967-14.179c0,0,0.117-9.423,6.718-3.203l1.974,6.294"/>
	
		<path display="inline" fill="none" stroke="#000000" stroke-width="3" stroke-linecap="round" stroke-linejoin="round" stroke-miterlimit="10" d="
		M34.656,43.548l-0.835-3.049"/>
	
		<path display="inline" fill="none" stroke="#000000" stroke-width="3" stroke-linecap="round" stroke-linejoin="round" stroke-miterlimit="10" d="
		M33.328,40.564L45.025,9.089c0,0-0.111-9.312-6.301-3.165L24.9,42.275"/>
</g>
<text transform="matrix(1 0 0 1 -447.0576 65.5181)" font-family="'ILoveGlitter'" font-size="79.7681">fortune fingers</text>
</svg>
